<?xml version="1.0"?><svg version="1.1" id="圖層_1" xmlns="http://www.w3.org/2000/svg" x="0" y="0" viewBox="0 0 100 100" xml:space="preserve"><circle cx="50" cy="50" r="39" fill="#333"/><path d="M45.39 70H34.841c-.666 0-1.205-.54-1.205-1.205v-37.59c0-.666.54-1.205 1.205-1.205H45.39c.666 0 1.205.54 1.205 1.205v37.59c0 .665-.54 1.205-1.205 1.205z" fill="#fefefe"/><path d="M65.159 70H54.61c-.666 0-1.205-.54-1.205-1.205v-37.59c0-.666.54-1.205 1.205-1.205h10.549c.666 0 1.205.54 1.205 1.205v37.59c0 .665-.54 1.205-1.205 1.205z" fill="#fefefe"/><metadata xmlns:d="https://loading.io/stock/">
<d:name>pause</d:name>
<d:tags>pause,stop,halt,stay,trap,player</d:tags>
<d:license>by</d:license>
<d:slug>3ipicd</d:slug>
</metadata></svg>